<?xml version="1.0"?>
<svg xmlns="http://www.w3.org/2000/svg" xmlns:xlink="http://www.w3.org/1999/xlink" xmlns:svgjs="http://svgjs.com/svgjs" version="1.1" width="512" height="512" x="0" y="0" viewBox="0 0 300 300" style="enable-background:new 0 0 512 512" xml:space="preserve"><g><path xmlns="http://www.w3.org/2000/svg" d="m50.511 59.497c7.719 0 14-6.281 14-14s-6.281-14-14-14-14 6.281-14 14 6.281 14 14 14zm0-20c3.309 0 6 2.691 6 6s-2.691 6-6 6-6-2.691-6-6 2.692-6 6-6z" fill="#f7b615" data-original="#000000" style=""/><path xmlns="http://www.w3.org/2000/svg" d="m232.511 113.497c0 7.719 6.281 14 14 14s14-6.281 14-14-6.281-14-14-14-14 6.281-14 14zm14-6c3.309 0 6 2.691 6 6s-2.691 6-6 6-6-2.691-6-6 2.692-6 6-6z" fill="#f7b615" data-original="#000000" style=""/><circle xmlns="http://www.w3.org/2000/svg" cx="262.511" cy="65.497" r="4.529" fill="#f7b615" data-original="#000000" style=""/><circle xmlns="http://www.w3.org/2000/svg" cx="70.511" cy="81.497" r="4.529" fill="#f7b615" data-original="#000000" style=""/><path xmlns="http://www.w3.org/2000/svg" d="m218.335 51.673c.781.781 1.805 1.172 2.828 1.172s2.047-.391 2.828-1.172l4.52-4.52 4.52 4.52c.781.781 1.805 1.172 2.828 1.172s2.047-.391 2.828-1.172c1.562-1.562 1.562-4.094 0-5.656l-4.52-4.52 4.52-4.52c1.562-1.562 1.562-4.094 0-5.656s-4.094-1.562-5.656 0l-4.52 4.52-4.52-4.52c-1.562-1.562-4.094-1.562-5.656 0s-1.562 4.094 0 5.656l4.52 4.52-4.52 4.52c-1.562 1.562-1.562 4.093 0 5.656z" fill="#f7b615" data-original="#000000" style=""/><path xmlns="http://www.w3.org/2000/svg" d="m34.335 135.673c.781.781 1.805 1.172 2.828 1.172s2.047-.391 2.828-1.172l4.52-4.52 4.52 4.52c.781.781 1.805 1.172 2.828 1.172s2.047-.391 2.828-1.172c1.562-1.562 1.562-4.094 0-5.656l-4.52-4.52 4.52-4.52c1.562-1.562 1.562-4.094 0-5.656s-4.094-1.562-5.656 0l-4.52 4.52-4.52-4.52c-1.562-1.562-4.094-1.562-5.656 0s-1.562 4.094 0 5.656l4.52 4.52-4.52 4.52c-1.562 1.562-1.562 4.093 0 5.656z" fill="#f7b615" data-original="#000000" style=""/><circle xmlns="http://www.w3.org/2000/svg" cx="170.511" cy="133.497" r="4" fill="#f7b615" data-original="#000000" style=""/><circle xmlns="http://www.w3.org/2000/svg" cx="130.511" cy="133.497" r="4" fill="#f7b615" data-original="#000000" style=""/><path xmlns="http://www.w3.org/2000/svg" d="m260.91 198.298c-5.074-3.809-5.5-9.961-5.992-17.082-.77-11.102-1.727-24.914-23.91-27.688-11.305-1.402-22.512 2.219-31.574 10.215-7.532 6.652-12.851 15.725-15.329 25.538l-15.593-7.085v-3.227c0-.037-.02-.068-.021-.105 15.309-7.315 26.948-20.944 31.67-37.375 2.66.07 5.109-.645 7.527-2.152 3.711-2.316 6.223-6.082 6.715-10.082.496-4.008-.746-8.027-3.398-11.031-1.824-2.059-4.191-3.516-6.793-4.23-.008-.703-.036-3.259-.045-3.525.2-.48.346-17.829.346-17.829.926-.11 1.828-.278 2.68-.573 3-1.035 5.289-3.16 6.797-6.312h.004c5.204-10.874-4.095-26.279-21.761-38.139 1.238-3.134 1.367-6.552.238-9.756-1.246-3.527-3.785-6.359-7.156-7.973-3.371-1.621-7.168-1.824-10.703-.582-3.208 1.133-5.791 3.375-7.455 6.301-20.314-6.331-38.146-3.921-43.357 6.953-1.173 2.45-1.426 5.01-.857 7.489-17.119 7.827-26.5 22.625-26.428 41.937l.051 6.605c.039 3.738.138 10.741.212 11.054-.001.058.041 3.364.041 4.341-2.406.652-4.598 1.945-6.379 3.789-2.66 2.762-4.051 6.395-3.914 10.23.148 4.281 2.578 8.414 6.492 11.055 2.473 1.668 4.953 2.484 7.648 2.441 4.184 15.285 14.33 28.112 27.867 35.9-.001.034-.019.062-.019.096v4.699l-31.879 14.488c-14.652 6.66-24.121 21.543-24.121 37.91v32.902c0 2.211 1.789 4 4 4h144c2.211 0 4-1.789 4-4v-18.417c1.97.248 3.964.417 6 .417 17.668 0 36.402-11.434 40.914-24.965 1.825-5.482 2.888-16.177-10.518-26.232zm-83.641-161.445c1.516-.531 3.141-.438 4.582.246 2.406 1.155 3.665 3.708 3.328 6.216-1.637-.901-3.315-1.778-5.055-2.611-1.723-.825-3.442-1.578-5.155-2.283.646-.679 1.392-1.249 2.3-1.568zm-46.258 9.16c1.801-3.754 7.422-5.938 15.305-5.938 8.238 0 18.949 2.383 30.355 7.844 22.32 10.695 33.777 26.703 30.102 34.383-.734 1.535-1.559 1.984-2.195 2.207-4.656 1.594-15.699-3.871-27.418-9.652-2.879-1.422-5.898-2.914-9.055-4.426-3.098-1.484-6.168-2.91-9.145-4.293-12.918-6.004-26.27-12.215-28.164-17.492-.312-.872-.25-1.661.215-2.633zm-4.003 10.962c5.611 5.729 16.084 10.609 28.577 16.417 2.953 1.371 5.996 2.785 9.066 4.258 3.125 1.496 6.117 2.973 8.969 4.379 9.078 4.484 16.618 8.197 22.891 9.836v15.125c-11.969 9-25.504 12.41-38.297 9.613-11.469-2.504-20.98-9.773-26.09-19.941-.582-1.156-1.688-1.961-2.965-2.156-1.285-.207-2.578.234-3.477 1.164-5.16 5.312-12.695 8.504-21.074 9.027-.004-1.93-.027-4.031-.047-6.184l-.051-6.559c-.075-20.614 11.953-30.374 22.498-34.979zm-19.407 79.155c-.23-1.121-.93-2.09-1.922-2.664-.992-.57-2.184-.68-3.273-.324-1.547.527-2.977.598-4.914-.715-1.773-1.195-2.914-3-2.977-4.707-.059-1.648.539-3.207 1.68-4.391 1.141-1.18 2.672-1.832 4.316-1.832 1.082 0 2.16-.461 2.914-1.234 1.111-1.142 1.454-2.122 1.385-7.581 8.557-.48 16.496-3.271 22.717-7.997 6.543 10.004 16.859 17.09 28.98 19.734 3.5.766 7.035 1.145 10.578 1.145 9.949-.003 19.926-3.032 29.213-8.799.152 1.828.517 2.703 1.326 3.521.75.762 1.816 1.211 2.887 1.211 1.719 0 3.359.738 4.496 2.027 1.156 1.305 1.672 2.992 1.457 4.754-.203 1.625-1.328 3.219-3.008 4.27-1.688 1.051-3.117 1.211-4.926.574-1.078-.395-2.277-.281-3.277.273-1.004.559-1.719 1.523-1.965 2.645-3.895 17.883-17.113 32.492-34.5 38.125l-1.766.578c-4.973 1.613-10.055 1.672-14.688.176-17.686-5.691-30.995-20.555-34.733-38.789zm32.281 46.406c3.031.977 6.184 1.461 9.383 1.461 3.395 0 6.836-.547 10.227-1.645l1.02-.333v1.478c0 6.617-5.383 12-12 12s-12-5.383-12-12v-2.287c1.124.44 2.211.953 3.37 1.326zm76.629 80.961h-24v-20c0-2.211-1.789-4-4-4s-4 1.789-4 4v20h-76v-20c0-2.211-1.789-4-4-4s-4 1.789-4 4v20h-20v-28.902c0-13.238 7.629-25.262 19.434-30.629l29.866-13.573c2.823 7.625 10.106 13.104 18.7 13.104 8.595 0 15.877-5.479 18.7-13.105l15.522 7.053c-.112 1.348-.222 2.697-.222 4.052 0 21.599 14.342 39.898 34 45.905zm47.324-41.496c-3.402 10.203-19.285 19.496-33.324 19.496-22.055 0-40-17.945-40-40 0-12.027 5.316-23.898 14.219-31.754 6.297-5.559 13.824-8.512 21.527-8.512 1.25 0 2.504.078 3.758.234 15.652 1.957 16.184 9.652 16.922 20.301.547 7.934 1.168 16.926 9.176 22.93 7.16 5.371 9.758 11.196 7.722 17.305z" fill="#f7b615" data-original="#000000" style=""/><path xmlns="http://www.w3.org/2000/svg" d="m246.511 205.661c-6.527 0-11.836 5.309-11.836 11.836 0 6.523 5.309 11.832 11.836 11.832s11.836-5.309 11.836-11.832c0-6.527-5.308-11.836-11.836-11.836zm0 15.668c-2.113 0-3.836-1.719-3.836-3.832s1.723-3.836 3.836-3.836 3.836 1.723 3.836 3.836-1.723 3.832-3.836 3.832z" fill="#f7b615" data-original="#000000" style=""/><path xmlns="http://www.w3.org/2000/svg" d="m222.511 167.028c-5.773 0-10.469 4.695-10.469 10.469s4.695 10.469 10.469 10.469 10.469-4.695 10.469-10.469-4.695-10.469-10.469-10.469zm0 12.938c-1.359 0-2.469-1.109-2.469-2.469s1.109-2.469 2.469-2.469 2.469 1.109 2.469 2.469-1.109 2.469-2.469 2.469z" fill="#f7b615" data-original="#000000" style=""/><path xmlns="http://www.w3.org/2000/svg" d="m214.98 199.497c0-5.773-4.695-10.469-10.469-10.469s-10.469 4.695-10.469 10.469 4.695 10.469 10.469 10.469 10.469-4.695 10.469-10.469zm-10.469 2.469c-1.359 0-2.469-1.109-2.469-2.469s1.109-2.469 2.469-2.469 2.469 1.109 2.469 2.469-1.109 2.469-2.469 2.469z" fill="#f7b615" data-original="#000000" style=""/><path xmlns="http://www.w3.org/2000/svg" d="m218.511 215.028c-5.773 0-10.469 4.695-10.469 10.469s4.695 10.469 10.469 10.469 10.469-4.695 10.469-10.469-4.695-10.469-10.469-10.469zm0 12.938c-1.359 0-2.469-1.109-2.469-2.469s1.109-2.469 2.469-2.469 2.469 1.109 2.469 2.469-1.109 2.469-2.469 2.469z" fill="#f7b615" data-original="#000000" style=""/><path xmlns="http://www.w3.org/2000/svg" d="m61.402 173.048c-.742-.734-1.496-1.48-2.23-2.25-.001-.001-.002-.001-.002-.002-.001 0-.001-.001-.001-.002-3.066-3.207-5.109-6.129-5.109-9.953 0-5.082-2.637-6.477-4.211-6.855-6.238-1.578-13.543 10.664-17.34 18.066-2.281 4.449-5.004 10.676-5.004 15.078 0 7.762 4.281 14.479 10.56 18.115l-2.314 51.385c-.188 4.152 1.266 8.168 3.988 11.012 2.375 2.488 5.492 3.855 8.773 3.855s6.398-1.367 8.773-3.855c2.723-2.844 4.176-6.859 3.988-11.012l-2.314-51.385c6.279-3.637 10.561-10.354 10.561-18.115-.001-6.043-4.314-10.316-8.118-14.082zm-14.922-8.274c.742 3.348 2.371 6.133 4.258 8.531-1.414 1.051-2.809 1.605-4.172 1.66-1.836-.008-3.828-.855-5.453-2.031 1.937-3.441 3.84-6.218 5.367-8.16zm6.801 92.215c.09 1.98-.559 3.852-1.777 5.125-.602.633-1.613 1.383-2.992 1.383s-2.391-.75-2.992-1.383c-1.219-1.273-1.867-3.145-1.777-5.125l2.211-49.11c.848.104 1.682.259 2.558.259s1.71-.154 2.558-.259zm-4.77-56.851c-7.172 0-13.008-5.836-13.008-13.008 0-1.134.594-3.545 2.06-7.02 2.88 1.843 5.81 2.859 8.768 2.859.18 0 .359-.004.543-.012 3.276-.126 6.4-1.413 9.333-3.794 2.891 2.871 5.312 5.389 5.312 7.966 0 7.173-5.836 13.009-13.008 13.009z" fill="#f7b615" data-original="#000000" style=""/></g></svg>
