<?xml version="1.0"?>
<svg xmlns="http://www.w3.org/2000/svg" xmlns:xlink="http://www.w3.org/1999/xlink" xmlns:svgjs="http://svgjs.com/svgjs" version="1.1" width="512" height="512" x="0" y="0" viewBox="0 0 512.005 512.005" style="enable-background:new 0 0 512 512" xml:space="preserve" class=""><g>
<g xmlns="http://www.w3.org/2000/svg">
	<g>
		<g>
			<path d="M511.563,500.764c-0.759-2.27-19.379-55.851-91.358-73.847c-4.557-1.143-9.207,1.638-10.351,6.212     c-1.143,4.574,1.638,9.207,6.212,10.351c62.532,15.633,78.66,60.8,79.309,62.686c1.186,3.576,4.514,5.837,8.09,5.837     c0.896,0,1.809-0.137,2.705-0.444C510.641,510.074,513.056,505.235,511.563,500.764z" fill="#f7b615" data-original="#000000" style=""/>
			<path d="M76.798,392.536h51.2c4.71,0,8.533-3.823,8.533-8.533c0-4.719-3.823-8.533-8.533-8.533h-51.2     c-7.322,0-12.126-1.758-14.268-5.222c-4.975-8.021,1.109-26.129,4.523-33.058c1.092-1.826,26.812-45.491,26.812-115.319v-42.667     c0-134.007,88.175-162.133,162.133-162.133c25.199,0,77.636,0,85.658,11.119c0.324,0.461,0.819,1.143,0.12,3.243     c-0.947,2.842-0.341,5.965,1.604,8.243c1.954,2.287,4.932,3.379,7.893,2.876c10.846-1.792,20.403,0.93,29.176,8.354     c22.895,19.388,37.683,69.751,37.683,128.299v42.667c0,73.532,22.844,109.645,26.769,115.302     c3.746,7.816,9.421,25.25,4.565,33.075c-2.142,3.464-6.946,5.222-14.268,5.222h-51.2c-4.71,0-8.533,3.814-8.533,8.533     c0,4.71,3.823,8.533,8.533,8.533h51.2c16.998,0,25.037-7.245,28.791-13.321c11.298-18.278-2.483-47.019-4.087-50.236     c-0.23-0.452-0.503-0.896-0.811-1.297c-0.239-0.324-23.893-32.708-23.893-105.813v-42.667     c0-50.415-11.477-114.014-43.716-141.321c-9.737-8.252-20.932-12.621-32.828-12.902c-0.683-2.773-1.911-5.035-3.157-6.767     c-12.134-16.845-52.241-18.21-99.499-18.21c-115.558,0-179.2,63.642-179.2,179.2v42.667c0,64.811-24.141,106.146-24.695,107.11     c-1.613,3.217-15.394,31.957-4.096,50.236C51.761,385.291,59.808,392.536,76.798,392.536z" fill="#f7b615" data-original="#000000" style=""/>
			<path d="M298.665,238.936c4.71,0,8.533-3.823,8.533-8.533v-5.615c0.555,0.521,0.922,0.956,0.964,1.024     c1.519,2.918,4.497,4.591,7.578,4.591c1.323,0,2.671-0.307,3.934-0.964c4.181-2.185,5.803-7.33,3.627-11.511     c-2.534-4.881-10.581-13.124-24.636-13.124c-14.054,0-22.101,8.243-24.636,13.124c-2.125,4.079-0.546,8.969,3.456,11.23     c4.011,2.287,9.165,0.802,11.563-3.123c0.085-0.137,0.495-0.631,1.084-1.203v5.572     C290.131,235.113,293.954,238.936,298.665,238.936z" fill="#f7b615" data-original="#000000" style=""/>
			<path d="M212.435,294.846c-2.116-4.207-7.219-5.931-11.452-3.814c-4.215,2.108-5.922,7.236-3.814,11.452     c10.769,21.538,32.316,21.786,33.229,21.786c4.71,0,8.533-3.823,8.533-8.533c0-4.719-3.823-8.533-8.533-8.533     C230.287,307.202,218.537,307.057,212.435,294.846z" fill="#f7b615" data-original="#000000" style=""/>
			<path d="M91.8,426.917c-71.987,17.997-90.607,71.578-91.358,73.847c-1.493,4.471,0.922,9.31,5.393,10.795     c0.896,0.307,1.809,0.444,2.697,0.444c3.576,0,6.904-2.261,8.098-5.837c0.154-0.469,16.316-46.942,79.309-62.686     c4.574-1.143,7.347-5.777,6.204-10.351C101.007,428.555,96.374,425.773,91.8,426.917z" fill="#f7b615" data-original="#000000" style=""/>
			<path d="M392.182,433.12c-0.154-0.614-0.418-1.161-0.7-1.732c-0.154-0.299-0.188-0.631-0.384-0.922     c-0.085-0.137-0.23-0.196-0.324-0.324c-0.358-0.486-0.811-0.87-1.271-1.271c-0.418-0.358-0.802-0.725-1.271-0.99     c-0.154-0.094-0.247-0.239-0.41-0.316l-34.133-17.067c-2.731-1.357-5.999-1.169-8.542,0.538l-51.209,34.133     c-2.381,1.579-3.806,4.241-3.806,7.1v30.259c-5.077,4.062-17.536,12.407-34.133,12.407c-16.427,0-29.013-8.388-34.133-12.433     v-30.234c0-2.859-1.425-5.521-3.797-7.1l-51.2-34.133c-2.551-1.707-5.82-1.911-8.55-0.538l-34.133,17.067     c-0.154,0.077-0.239,0.222-0.384,0.299c-0.503,0.282-0.904,0.666-1.348,1.05c-0.435,0.393-0.862,0.751-1.203,1.203     c-0.102,0.137-0.256,0.205-0.35,0.35c-0.205,0.307-0.239,0.657-0.401,0.981c-0.265,0.538-0.521,1.058-0.674,1.638     c-0.128,0.529-0.171,1.041-0.205,1.579c-0.034,0.546-0.06,1.075,0.008,1.63c0.085,0.58,0.265,1.118,0.461,1.672     c0.119,0.35,0.111,0.708,0.282,1.05c0.077,0.154,0.222,0.247,0.307,0.393c0.282,0.486,0.649,0.887,1.024,1.314     c0.393,0.452,0.759,0.888,1.229,1.237c0.137,0.094,0.196,0.247,0.341,0.341l51.2,34.133c1.451,0.964,3.098,1.434,4.719,1.434     c2.765,0,5.461-1.34,7.108-3.806c2.611-3.917,1.553-9.216-2.364-11.827l-38.963-25.975l16.546-8.286l43.281,28.86v29.568     c0,2.261,0.905,4.429,2.5,6.033c0.802,0.794,19.9,19.567,48.7,19.567c28.809,0,47.906-18.773,48.7-19.567     c1.604-1.604,2.5-3.772,2.5-6.033v-29.568l43.29-28.86l16.546,8.277l-38.963,25.984c-3.925,2.611-4.983,7.91-2.372,11.827     c1.647,2.466,4.352,3.806,7.108,3.806c1.63,0,3.277-0.469,4.727-1.434l51.2-34.133c0.137-0.094,0.205-0.239,0.333-0.333     c0.478-0.358,0.862-0.811,1.263-1.271c0.358-0.418,0.717-0.802,0.99-1.263c0.085-0.154,0.239-0.256,0.324-0.418     c0.179-0.358,0.171-0.742,0.299-1.109c0.179-0.521,0.35-1.033,0.427-1.579c0.077-0.589,0.051-1.143,0.009-1.732     C392.344,434.093,392.31,433.615,392.182,433.12z" fill="#f7b615" data-original="#000000" style=""/>
			<path d="M237.967,217.927c-2.534-4.881-10.581-13.124-24.636-13.124c-14.054,0-22.101,8.243-24.636,13.124     c-2.116,4.079-0.546,8.969,3.456,11.23c4.019,2.287,9.165,0.802,11.563-3.123c0.085-0.137,0.495-0.631,1.084-1.203v5.572     c0,4.71,3.823,8.533,8.533,8.533c4.71,0,8.533-3.823,8.533-8.533v-5.615c0.555,0.521,0.922,0.956,0.964,1.024     c1.519,2.918,4.497,4.591,7.578,4.591c1.323,0,2.671-0.307,3.934-0.964C238.522,227.254,240.143,222.108,237.967,217.927z" fill="#f7b615" data-original="#000000" style=""/>
			<path d="M357.758,114.349c-2.825-3.763-8.158-4.54-11.947-1.707c-65.186,48.887-215.236,49.493-216.747,49.493     c-4.71,0-8.533,3.814-8.533,8.533v34.133c0,36.625,26.88,106.957,35.038,123.281c10.385,20.77,55.825,72.986,101.495,72.986     c37.769,0,75.307-35.661,93.073-59.759c23.398-0.154,42.394-19.209,42.394-42.641c0-11.213-4.318-21.683-11.861-29.525     c7.066-22.861,12.928-47.258,12.928-64.341c0-2.68-1.263-5.214-3.405-6.827c-8.55-6.434-30.729-26.948-30.729-44.373     c0-4.719-3.823-8.533-8.533-8.533s-8.533,3.814-8.533,8.533c0,24.67,24.354,47.241,34.022,55.228     c-0.794,14.396-5.521,34.022-11.298,53.026c-1.715,0.623-3.294,1.673-4.335,3.345c-1.894,3.004-1.673,6.724,0.256,9.463     c-6.699,20.19-13.875,38.05-17.741,45.781c-0.555,1.101-1.314,2.415-2.193,3.823h-35.482     c-3.533-9.916-12.919-17.067-24.03-17.067c-14.114,0-25.6,11.477-25.6,25.6c0,14.114,11.486,25.6,25.6,25.6     c11.11,0,20.497-7.159,24.03-17.067h22.494c-16.956,19.354-44.578,42.667-71.057,42.667c-38.076,0-78.575-48.23-86.229-63.556     c-8.542-17.075-33.237-83.371-33.237-115.644v-25.728c33.843-0.811,157.321-6.929,218.453-52.787     C359.823,123.463,360.591,118.112,357.758,114.349z M373.775,290.008c0.99,2.756,1.69,5.623,1.69,8.661     c0,9.822-5.623,18.27-13.764,22.562C364.96,313.713,369.312,302.705,373.775,290.008z M281.598,341.336     c-4.702,0-8.533-3.831-8.533-8.533c0-4.71,3.831-8.533,8.533-8.533c4.71,0,8.533,3.823,8.533,8.533     C290.131,337.504,286.309,341.336,281.598,341.336z" fill="#f7b615" data-original="#000000" style=""/>
		</g>
	</g>
</g>
<g xmlns="http://www.w3.org/2000/svg">
</g>
<g xmlns="http://www.w3.org/2000/svg">
</g>
<g xmlns="http://www.w3.org/2000/svg">
</g>
<g xmlns="http://www.w3.org/2000/svg">
</g>
<g xmlns="http://www.w3.org/2000/svg">
</g>
<g xmlns="http://www.w3.org/2000/svg">
</g>
<g xmlns="http://www.w3.org/2000/svg">
</g>
<g xmlns="http://www.w3.org/2000/svg">
</g>
<g xmlns="http://www.w3.org/2000/svg">
</g>
<g xmlns="http://www.w3.org/2000/svg">
</g>
<g xmlns="http://www.w3.org/2000/svg">
</g>
<g xmlns="http://www.w3.org/2000/svg">
</g>
<g xmlns="http://www.w3.org/2000/svg">
</g>
<g xmlns="http://www.w3.org/2000/svg">
</g>
<g xmlns="http://www.w3.org/2000/svg">
</g>
</g></svg>
