<?xml version="1.0"?>
<svg xmlns="http://www.w3.org/2000/svg" xmlns:xlink="http://www.w3.org/1999/xlink" xmlns:svgjs="http://svgjs.com/svgjs" version="1.1" width="512" height="512" x="0" y="0" viewBox="0 0 512.001 512.001" style="enable-background:new 0 0 512 512" xml:space="preserve" class=""><g>
<g xmlns="http://www.w3.org/2000/svg">
	<g>
		<g>
			<path d="M469.331,102.401h-358.4c-4.71,0-8.533,3.823-8.533,8.533v349.867c0,3.712,2.398,6.997,5.931,8.124     c3.533,1.152,7.398-0.145,9.549-3.166c0.401-0.555,40.747-56.158,95.454-56.158c55.194,0,87.526,31.334,87.834,31.633     c2.048,2.048,5.001,2.91,7.842,2.313c2.833-0.623,5.163-2.628,6.187-5.35c0.188-0.495,16.017-40.491,71.441-56.328     c0.307-0.102,0.623-0.154,0.913-0.29c13.474-3.746,29.201-6.11,47.65-6.11c4.71,0,8.533-3.823,8.533-8.533     s-3.823-8.533-8.533-8.533c-15.932,0-30.071,1.587-42.667,4.258v-22.187c19.447-3.968,34.133-21.197,34.133-41.805     c0-1.109-0.486-110.933-42.667-110.933c-42.18,0-42.667,109.824-42.667,110.933c0,20.608,14.686,37.837,34.133,41.805v26.846     c-41.694,13.679-62.396,39.834-71.04,54.46c-14.336-10.718-45.679-29.244-91.093-29.244c-41.958,0-75.469,26.598-93.867,45.346     V119.467h341.333v341.333H145.064c-4.71,0-8.533,3.823-8.533,8.533c0,4.71,3.823,8.533,8.533,8.533h324.267     c4.71,0,8.533-3.823,8.533-8.533v-358.4C477.864,106.224,474.042,102.401,469.331,102.401z M358.398,298.667     c0-42.513,11.418-93.867,25.6-93.867c14.182,0,25.6,51.354,25.6,93.867c0,14.114-11.486,25.6-25.6,25.6     C369.884,324.267,358.398,312.781,358.398,298.667z" fill="#f7b615" data-original="#000000" style=""/>
			<path d="M17.261,89.473c-1.715-14.012,8.286-26.812,22.298-28.535l355.721-43.674c6.793-0.819,13.5,1.033,18.884,5.239     c5.393,4.207,8.815,10.266,9.651,17.05l0.546,4.497c0.572,4.676,4.804,7.987,9.506,7.433c4.685-0.58,8.004-4.83,7.433-9.506     l-0.546-4.497c-1.391-11.307-7.1-21.41-16.077-28.424c-8.977-7.014-20.13-10.121-31.479-8.73L37.476,43.998     C14.129,46.866-2.537,68.199,0.322,91.555l36.335,295.97c0.538,4.326,4.216,7.492,8.465,7.492c0.35,0,0.7-0.017,1.05-0.06     c4.676-0.58,8.004-4.838,7.432-9.515L17.261,89.473z" fill="#f7b615" data-original="#000000" style=""/>
			<path d="M469.331,68.267h-358.4c-23.526,0-42.667,19.14-42.667,42.667v358.4c0,23.526,19.14,42.667,42.667,42.667h358.4     c23.526,0,42.667-19.14,42.667-42.667v-358.4C511.998,87.408,492.857,68.267,469.331,68.267z M494.931,469.334     c0,14.114-11.486,25.6-25.6,25.6h-358.4c-14.114,0-25.6-11.486-25.6-25.6v-358.4c0-14.114,11.486-25.6,25.6-25.6h358.4     c14.114,0,25.6,11.486,25.6,25.6V469.334z" fill="#f7b615" data-original="#000000" style=""/>
			<path d="M281.606,221.867c4.71,0,8.533-3.823,8.533-8.533c0-4.71-3.823-8.533-8.533-8.533h-26.47     c-1.109-5.436-3.277-10.479-6.238-14.95l18.748-18.765c3.328-3.337,3.328-8.738-0.009-12.075     c-3.328-3.319-8.738-3.328-12.066,0.009l-18.748,18.756c-4.471-2.97-9.515-5.137-14.95-6.246l-0.017-26.479     c0-4.719-3.823-8.533-8.533-8.533c-4.719,0.009-8.533,3.823-8.533,8.542l0.017,26.47c-5.436,1.109-10.479,3.277-14.95,6.238     l-18.782-18.748c-3.337-3.328-8.738-3.328-12.066,0.009c-3.328,3.336-3.328,8.738,0.009,12.066l18.765,18.739     c-2.97,4.48-5.146,9.523-6.255,14.968h-26.462c-4.71,0-8.533,3.823-8.533,8.533c0,4.71,3.823,8.533,8.533,8.533h26.462     c1.109,5.436,3.277,10.487,6.246,14.959l-18.748,18.739c-3.337,3.328-3.337,8.738,0,12.066c1.664,1.673,3.849,2.5,6.033,2.5     c2.185,0,4.369-0.828,6.033-2.5l18.748-18.739c4.48,2.97,9.523,5.137,14.959,6.246v26.462c0,4.71,3.823,8.533,8.533,8.533     c4.71,0,8.533-3.823,8.533-8.533v-26.462c5.436-1.109,10.479-3.277,14.95-6.238l18.756,18.739     c1.673,1.664,3.849,2.492,6.033,2.492c2.185,0,4.369-0.828,6.042-2.5c3.328-3.328,3.328-8.738-0.009-12.066l-18.748-18.739     c2.97-4.471,5.137-9.523,6.246-14.959H281.606z M238.931,213.368c-0.017,14.089-11.477,25.549-25.574,25.566     c-0.009,0-0.017-0.009-0.026-0.009c-0.009,0-0.017,0.009-0.026,0.009c-14.106-0.017-25.574-11.494-25.574-25.6     c0-14.114,11.486-25.6,25.6-25.6c14.106,0,25.583,11.469,25.6,25.574c0,0.009-0.009,0.017-0.009,0.026     C238.923,213.342,238.931,213.351,238.931,213.368z" fill="#f7b615" data-original="#000000" style=""/>
		</g>
	</g>
</g>
<g xmlns="http://www.w3.org/2000/svg">
</g>
<g xmlns="http://www.w3.org/2000/svg">
</g>
<g xmlns="http://www.w3.org/2000/svg">
</g>
<g xmlns="http://www.w3.org/2000/svg">
</g>
<g xmlns="http://www.w3.org/2000/svg">
</g>
<g xmlns="http://www.w3.org/2000/svg">
</g>
<g xmlns="http://www.w3.org/2000/svg">
</g>
<g xmlns="http://www.w3.org/2000/svg">
</g>
<g xmlns="http://www.w3.org/2000/svg">
</g>
<g xmlns="http://www.w3.org/2000/svg">
</g>
<g xmlns="http://www.w3.org/2000/svg">
</g>
<g xmlns="http://www.w3.org/2000/svg">
</g>
<g xmlns="http://www.w3.org/2000/svg">
</g>
<g xmlns="http://www.w3.org/2000/svg">
</g>
<g xmlns="http://www.w3.org/2000/svg">
</g>
</g></svg>
