<?xml version="1.0"?>
<svg xmlns="http://www.w3.org/2000/svg" xmlns:xlink="http://www.w3.org/1999/xlink" xmlns:svgjs="http://svgjs.com/svgjs" version="1.1" width="512" height="512" x="0" y="0" viewBox="0 0 512 512" style="enable-background:new 0 0 512 512" xml:space="preserve" class=""><g>
<g xmlns="http://www.w3.org/2000/svg">
	<g>
		<g>
			<path d="M329.54,409.6h20.326c4.719,0,8.533-3.823,8.533-8.533s-3.814-8.533-8.533-8.533H162.133     c-4.719,0-8.533,3.823-8.533,8.533s3.814,8.533,8.533,8.533h20.326l-45.03,90.052c-2.108,4.215-0.393,9.335,3.823,11.452     c1.22,0.606,2.526,0.896,3.806,0.896c3.132,0,6.144-1.724,7.637-4.719L201.54,409.6h45.926v93.867     c0,4.71,3.814,8.533,8.533,8.533c4.719,0,8.533-3.823,8.533-8.533V409.6h45.926l48.845,97.681     c1.493,2.995,4.506,4.719,7.637,4.719c1.28,0,2.586-0.29,3.806-0.896c4.215-2.116,5.931-7.236,3.814-11.452L329.54,409.6z" fill="#f7b615" data-original="#000000" style="" class=""/>
			<path d="M196.267,51.2h119.467c4.719,0,8.533-3.823,8.533-8.533c0-4.71-3.814-8.533-8.533-8.533h-51.2v-25.6     C264.533,3.823,260.719,0,256,0c-4.719,0-8.533,3.823-8.533,8.533v25.6h-51.2c-4.719,0-8.533,3.823-8.533,8.533     C187.733,47.377,191.548,51.2,196.267,51.2z" fill="#f7b615" data-original="#000000" style="" class=""/>
			<path d="M418.133,68.267H93.867c-23.526,0-42.667,19.14-42.667,42.667v179.2c0,4.71,3.814,8.533,8.533,8.533     s8.533-3.823,8.533-8.533v-179.2c0-14.114,11.486-25.6,25.6-25.6h324.267c14.114,0,25.6,11.486,25.6,25.6V332.8     c0,14.114-11.486,25.6-25.6,25.6H93.867c-12.962,0-23.689-9.677-25.378-22.178c55.748-51.157,157.807-12.928,158.857-12.518     c3.584,1.382,7.603,0.196,9.882-2.85c0.23-0.307,23.672-30.72,78.507-30.72c55.834,0,96.674,31.949,97.084,32.273     c3.678,2.935,9.045,2.338,11.981-1.357c2.935-3.678,2.347-9.037-1.331-11.981c-1.758-1.399-41.754-32.777-99.2-35.712v-18.415     c15.206-3.516,25.6-16.299,25.6-33.075c0-20.019-2.458-85.333-34.133-85.333c-32.495,0-34.133,71.083-34.133,85.333     c0,16.776,10.394,29.559,25.6,33.075v18.364c-44.689,2.372-69.914,22.895-79.343,32.478     c-24.124-8.107-118.426-34.765-174.157,20.983c-1.604,1.604-2.5,3.772-2.5,6.033c0,23.526,19.14,42.667,42.667,42.667h324.267     c23.526,0,42.667-19.14,42.667-42.667V110.933C460.8,87.407,441.66,68.267,418.133,68.267z M298.667,221.867     c0-42.291,9.941-68.267,17.067-68.267c6.972,0,17.067,24.311,17.067,68.267c0,10.522-6.545,17.067-17.067,17.067     C305.365,238.933,298.667,232.235,298.667,221.867z" fill="#f7b615" data-original="#000000" style="" class=""/>
			<path d="M128,153.6c-4.719,0-8.533,3.823-8.533,8.533c0,4.71,3.814,8.533,8.533,8.533h10.112c0.29,0.836,0.614,1.647,0.99,2.44     l-7.134,7.134c-3.337,3.337-3.337,8.738,0,12.066c1.664,1.664,3.849,2.5,6.033,2.5c2.185,0,4.369-0.836,6.033-2.5l7.134-7.134     c0.802,0.375,1.604,0.691,2.449,0.99l-0.009,10.112c0,4.71,3.814,8.525,8.533,8.533c4.71,0,8.533-3.814,8.533-8.525l0.009-10.129     c0.828-0.299,1.638-0.614,2.423-0.99l7.134,7.142c1.664,1.664,3.857,2.5,6.042,2.5s4.369-0.836,6.025-2.492     c3.345-3.328,3.345-8.73,0.017-12.066l-7.151-7.168c0.375-0.785,0.691-1.596,0.99-2.423l10.112,0.009h0.009     c4.71,0,8.533-3.814,8.533-8.525c0-4.719-3.814-8.542-8.525-8.542l-10.138-0.009c-0.299-0.836-0.614-1.638-0.99-2.432     l7.142-7.134c3.345-3.328,3.345-8.721,0.017-12.066c-3.337-3.337-8.747-3.328-12.066-0.009l-7.159,7.151     c-0.794-0.384-1.596-0.7-2.432-0.99L170.675,128c0-4.719-3.814-8.533-8.525-8.542h-0.009c-4.71,0-8.533,3.814-8.533,8.533     l-0.009,10.112c-0.836,0.299-1.638,0.614-2.432,0.998l-7.134-7.142c-3.337-3.337-8.738-3.328-12.066-0.009     c-3.337,3.337-3.337,8.738,0,12.066l7.134,7.142c-0.375,0.794-0.7,1.604-0.99,2.441H128z M162.133,153.6     c4.71,0,8.533,3.831,8.533,8.533c0,4.702-3.823,8.533-8.533,8.533c-4.71,0-8.533-3.831-8.533-8.533     C153.6,157.431,157.423,153.6,162.133,153.6z" fill="#f7b615" data-original="#000000" style="" class=""/>
		</g>
	</g>
</g>
<g xmlns="http://www.w3.org/2000/svg">
</g>
<g xmlns="http://www.w3.org/2000/svg">
</g>
<g xmlns="http://www.w3.org/2000/svg">
</g>
<g xmlns="http://www.w3.org/2000/svg">
</g>
<g xmlns="http://www.w3.org/2000/svg">
</g>
<g xmlns="http://www.w3.org/2000/svg">
</g>
<g xmlns="http://www.w3.org/2000/svg">
</g>
<g xmlns="http://www.w3.org/2000/svg">
</g>
<g xmlns="http://www.w3.org/2000/svg">
</g>
<g xmlns="http://www.w3.org/2000/svg">
</g>
<g xmlns="http://www.w3.org/2000/svg">
</g>
<g xmlns="http://www.w3.org/2000/svg">
</g>
<g xmlns="http://www.w3.org/2000/svg">
</g>
<g xmlns="http://www.w3.org/2000/svg">
</g>
<g xmlns="http://www.w3.org/2000/svg">
</g>
</g></svg>
